  0
SECTION
  2
HEADER
  9
$ACADVER
  1
AC1014
  9
$HANDSEED
  5
FFFF
  9
$MEASUREMENT
 70
     1
  0
ENDSEC
  0
SECTION
  2
TABLES
  0
TABLE
  2
VPORT
  5
8
330
0
100
AcDbSymbolTable
 70
     4
  0
VPORT
  5
2E
330
8
100
AcDbSymbolTableRecord
100
AcDbViewportTableRecord
  2
*ACTIVE
 70
     0
 10
0.0
 20
0.0
 11
1.0
 21
1.0
 12
210.0
 22
148.5
 13
0.0
 23
0.0
 14
10.0
 24
10.0
 15
10.0
 25
10.0
 16
0.0
 26
0.0
 36
1.0
 17
0.0
 27
0.0
 37
0.0
 40
341.0
 41
1.24
 42
50.0
 43
0.0
 44
0.0
 50
0.0
 51
0.0
 71
     0
 72
   100
 73
     1
 74
     3
 75
     0
 76
     0
 77
     0
 78
     0
  0
ENDTAB
  0
TABLE
  2
LTYPE
  5
5
330
0
100
AcDbSymbolTable
 70
     1
  0
LTYPE
  5
14
330
5
100
AcDbSymbolTableRecord
100
AcDbLinetypeTableRecord
  2
BYBLOCK
 70
     0
  3

 72
    65
 73
     0
 40
0.0
  0
LTYPE
  5
15
330
5
100
AcDbSymbolTableRecord
100
AcDbLinetypeTableRecord
  2
BYLAYER
 70
     0
  3

 72
    65
 73
     0
 40
0.0
  0
LTYPE
  5
16
330
5
100
AcDbSymbolTableRecord
100
AcDbLinetypeTableRecord
  2
CONTINUOUS
 70
     0
  3
Solid line
 72
    65
 73
     0
 40
0.0
  0
ENDTAB
  0
TABLE
  2
LAYER
  5
2
100
AcDbSymbolTable
 70
2
  0
LAYER
  5
50
100
AcDbSymbolTableRecord
100
AcDbLayerTableRecord
  2
0
 70
0
  6
CONTINUOUS
  0
LAYER
  5
51
100
AcDbSymbolTableRecord
100
AcDbLayerTableRecord
  2
Capa_1
 70
0
  6
CONTINUOUS
  0
ENDTAB
  0
TABLE
  2
STYLE
  5
3
330
0
100
AcDbSymbolTable
 70
     1
  0
STYLE
  5
11
330
3
100
AcDbSymbolTableRecord
100
AcDbTextStyleTableRecord
  2
STANDARD
 70
     0
 40
0.0
 41
1.0
 50
0.0
 71
     0
 42
2.5
  3
txt
  4

  0
ENDTAB
  0
TABLE
  2
VIEW
  5
6
330
0
100
AcDbSymbolTable
 70
     0
  0
ENDTAB
  0
TABLE
  2
UCS
  5
7
330
0
100
AcDbSymbolTable
 70
     0
  0
ENDTAB
  0
TABLE
  2
APPID
  5
9
330
0
100
AcDbSymbolTable
 70
     2
  0
APPID
  5
12
330
9
100
AcDbSymbolTableRecord
100
AcDbRegAppTableRecord
  2
ACAD
 70
     0
  0
ENDTAB
  0
TABLE
  2
DIMSTYLE
  5
A
330
0
100
AcDbSymbolTable
 70
     1
  0
DIMSTYLE
105
27
330
A
100
AcDbSymbolTableRecord
100
AcDbDimStyleTableRecord
  2
ISO-25
 70
     0
  3

  4

  5

  6

  7

 40
1.0
 41
2.5
 42
0.625
 43
3.75
 44
1.25
 45
0.0
 46
0.0
 47
0.0
 48
0.0
140
2.5
141
2.5
142
0.0
143
0.03937007874016
144
1.0
145
0.0
146
1.0
147
0.625
 71
     0
 72
     0
 73
     0
 74
     0
 75
     0
 76
     0
 77
     1
 78
     8
170
     0
171
     3
172
     1
173
     0
174
     0
175
     0
176
     0
177
     0
178
     0
270
     2
271
     2
272
     2
273
     2
274
     3
340
11
275
     0
280
     0
281
     0
282
     0
283
     0
284
     8
285
     0
286
     0
287
     3
288
     0
  0
ENDTAB
  0
TABLE
  2
BLOCK_RECORD
  5
1
330
0
100
AcDbSymbolTable
 70
     1
  0
BLOCK_RECORD
  5
1F
330
1
100
AcDbSymbolTableRecord
100
AcDbBlockTableRecord
  2
*MODEL_SPACE
  0
BLOCK_RECORD
  5
1B
330
1
100
AcDbSymbolTableRecord
100
AcDbBlockTableRecord
  2
*PAPER_SPACE
  0
ENDTAB
  0
ENDSEC
  0
SECTION
  2
BLOCKS
  0
BLOCK
  5
20
330
1F
100
AcDbEntity
  8
0
100
AcDbBlockBegin
  2
*MODEL_SPACE
 70
     0
 10
0.0
 20
0.0
 30
0.0
  3
*MODEL_SPACE
  1

  0
ENDBLK
  5
21
330
1F
100
AcDbEntity
  8
0
100
AcDbBlockEnd
  0
BLOCK
  5
1C
330
1B
100
AcDbEntity
 67
     1
  8
0
100
AcDbBlockBegin
  2
*PAPER_SPACE
  1

  0
ENDBLK
  5
1D
330
1B
100
AcDbEntity
 67
     1
  8
0
100
AcDbBlockEnd
  0
ENDSEC
  0
SECTION
  2
ENTITIES
  0
LWPOLYLINE
  5
100
100
AcDbEntity
  8
Capa_1
 62
7
100
AcDbPolyline
 90
2
 70
0
 10
36.644651
 20
148.729734
 30
0.0
 10
36.324651
 20
148.305845
 30
0.0
  0
LWPOLYLINE
  5
101
100
AcDbEntity
  8
Capa_1
 62
7
100
AcDbPolyline
 90
2
 70
0
 10
36.319452
 20
148.208135
 30
0.0
 10
37.730348
 20
146.473529
 30
0.0
  0
LWPOLYLINE
  5
102
100
AcDbEntity
  8
Capa_1
 62
7
100
AcDbPolyline
 90
2
 70
0
 10
36.318650
 20
148.215728
 30
0.0
 10
36.319444
 20
148.208055
 30
0.0
  0
LWPOLYLINE
  5
103
100
AcDbEntity
  8
Capa_1
 62
7
100
AcDbPolyline
 90
2
 70
0
 10
36.324651
 20
148.305845
 30
0.0
 10
36.318645
 20
148.215728
 30
0.0
  0
LWPOLYLINE
  5
104
100
AcDbEntity
  8
Capa_1
 62
7
100
AcDbPolyline
 90
2
 70
0
 10
61.630718
 20
139.078143
 30
0.0
 10
64.531995
 20
139.036339
 30
0.0
  0
LWPOLYLINE
  5
105
100
AcDbEntity
  8
Capa_1
 62
7
100
AcDbPolyline
 90
2
 70
0
 10
61.563619
 20
139.084360
 30
0.0
 10
61.630718
 20
139.078010
 30
0.0
  0
LWPOLYLINE
  5
106
100
AcDbEntity
  8
Capa_1
 62
7
100
AcDbPolyline
 90
2
 70
0
 10
34.186452
 20
244.353819
 30
0.0
 10
32.861754
 20
240.469822
 30
0.0
  0
LWPOLYLINE
  5
107
100
AcDbEntity
  8
Capa_1
 62
7
100
AcDbPolyline
 90
2
 70
0
 10
41.008444
 20
250.977810
 30
0.0
 10
34.186452
 20
244.353819
 30
0.0
  0
LWPOLYLINE
  5
108
100
AcDbEntity
  8
Capa_1
 62
7
100
AcDbPolyline
 90
2
 70
0
 10
58.078523
 20
250.909109
 30
0.0
 10
41.008444
 20
250.977810
 30
0.0
  0
LWPOLYLINE
  5
109
100
AcDbEntity
  8
Capa_1
 62
7
100
AcDbPolyline
 90
2
 70
0
 10
84.066990
 20
135.043755
 30
0.0
 10
103.857866
 20
134.897043
 30
0.0
  0
LWPOLYLINE
  5
10a
100
AcDbEntity
  8
Capa_1
 62
7
100
AcDbPolyline
 90
2
 70
0
 10
81.465763
 20
137.099565
 30
0.0
 10
84.066990
 20
135.043755
 30
0.0
  0
LWPOLYLINE
  5
10b
100
AcDbEntity
  8
Capa_1
 62
7
100
AcDbPolyline
 90
2
 70
0
 10
81.116474
 20
138.943840
 30
0.0
 10
81.465763
 20
137.099565
 30
0.0
  0
LWPOLYLINE
  5
10c
100
AcDbEntity
  8
Capa_1
 62
7
100
AcDbPolyline
 90
2
 70
0
 10
103.857866
 20
134.897043
 30
0.0
 10
111.215956
 20
139.246153
 30
0.0
  0
LWPOLYLINE
  5
10d
100
AcDbEntity
  8
Capa_1
 62
7
100
AcDbPolyline
 90
2
 70
0
 10
37.767448
 20
199.248127
 30
0.0
 10
38.142849
 20
191.845703
 30
0.0
  0
LWPOLYLINE
  5
10e
100
AcDbEntity
  8
Capa_1
 62
7
100
AcDbPolyline
 90
2
 70
0
 10
97.769673
 20
261.092596
 30
0.0
 10
96.368875
 20
261.767195
 30
0.0
  0
LWPOLYLINE
  5
10f
100
AcDbEntity
  8
Capa_1
 62
7
100
AcDbPolyline
 90
2
 70
0
 10
97.122474
 20
257.620801
 30
0.0
 10
96.272475
 20
259.093100
 30
0.0
  0
LWPOLYLINE
  5
110
100
AcDbEntity
  8
Capa_1
 62
7
100
AcDbPolyline
 90
2
 70
0
 10
180.792768
 20
152.534834
 30
0.0
 10
178.190772
 20
155.250223
 30
0.0
  0
LWPOLYLINE
  5
111
100
AcDbEntity
  8
Capa_1
 62
7
100
AcDbPolyline
 90
2
 70
0
 10
181.423767
 20
142.380350
 30
0.0
 10
180.792768
 20
152.534834
 30
0.0
  0
LWPOLYLINE
  5
112
100
AcDbEntity
  8
Capa_1
 62
7
100
AcDbPolyline
 90
2
 70
0
 10
178.190772
 20
155.250223
 30
0.0
 10
170.500082
 20
160.635016
 30
0.0
  0
LWPOLYLINE
  5
113
100
AcDbEntity
  8
Capa_1
 62
7
100
AcDbPolyline
 90
2
 70
0
 10
170.708581
 20
128.758056
 30
0.0
 10
181.423767
 20
142.380350
 30
0.0
  0
LWPOLYLINE
  5
114
100
AcDbEntity
  8
Capa_1
 62
7
100
AcDbPolyline
 90
3
 70
0
 10
174.594777
 20
206.095588
 30
0.0
 10
174.409775
 20
209.910451
 30
0.0
 10
172.723979
 20
227.154728
 30
0.0
  0
LWPOLYLINE
  5
115
100
AcDbEntity
  8
Capa_1
 62
7
100
AcDbPolyline
 90
2
 70
0
 10
39.871346
 20
210.865358
 30
0.0
 10
39.021347
 20
212.337656
 30
0.0
  0
LWPOLYLINE
  5
116
100
AcDbEntity
  8
Capa_1
 62
7
100
AcDbPolyline
 90
2
 70
0
 10
37.321348
 20
212.337656
 30
0.0
 10
36.471349
 20
210.865358
 30
0.0
  0
LWPOLYLINE
  5
117
100
AcDbEntity
  8
Capa_1
 62
7
100
AcDbPolyline
 90
2
 70
0
 10
39.021347
 20
212.337656
 30
0.0
 10
37.321348
 20
212.337656
 30
0.0
  0
LWPOLYLINE
  5
118
100
AcDbEntity
  8
Capa_1
 62
7
100
AcDbPolyline
 90
2
 70
0
 10
39.021347
 20
209.393165
 30
0.0
 10
39.871346
 20
210.865358
 30
0.0
  0
LWPOLYLINE
  5
119
100
AcDbEntity
  8
Capa_1
 62
7
100
AcDbPolyline
 90
2
 70
0
 10
37.321348
 20
209.393165
 30
0.0
 10
39.021347
 20
209.393165
 30
0.0
  0
LWPOLYLINE
  5
11a
100
AcDbEntity
  8
Capa_1
 62
7
100
AcDbPolyline
 90
2
 70
0
 10
36.471349
 20
210.865358
 30
0.0
 10
37.321348
 20
209.393165
 30
0.0
  0
LWPOLYLINE
  5
11b
100
AcDbEntity
  8
Capa_1
 62
7
100
AcDbPolyline
 90
2
 70
0
 10
94.572477
 20
259.093100
 30
0.0
 10
93.722478
 20
257.620801
 30
0.0
  0
LWPOLYLINE
  5
11c
100
AcDbEntity
  8
Capa_1
 62
7
100
AcDbPolyline
 90
2
 70
0
 10
96.272475
 20
259.093100
 30
0.0
 10
94.572477
 20
259.093100
 30
0.0
  0
LWPOLYLINE
  5
11d
100
AcDbEntity
  8
Capa_1
 62
7
100
AcDbPolyline
 90
2
 70
0
 10
96.272475
 20
256.148603
 30
0.0
 10
97.122474
 20
257.620801
 30
0.0
  0
LWPOLYLINE
  5
11e
100
AcDbEntity
  8
Capa_1
 62
7
100
AcDbPolyline
 90
2
 70
0
 10
94.572477
 20
256.148603
 30
0.0
 10
96.272475
 20
256.148603
 30
0.0
  0
LWPOLYLINE
  5
11f
100
AcDbEntity
  8
Capa_1
 62
7
100
AcDbPolyline
 90
2
 70
0
 10
93.722478
 20
257.620801
 30
0.0
 10
94.572477
 20
256.148603
 30
0.0
  0
LWPOLYLINE
  5
120
100
AcDbEntity
  8
Capa_1
 62
7
100
AcDbPolyline
 90
2
 70
0
 10
124.476340
 20
138.173745
 30
0.0
 10
123.626341
 20
139.645938
 30
0.0
  0
LWPOLYLINE
  5
121
100
AcDbEntity
  8
Capa_1
 62
7
100
AcDbPolyline
 90
2
 70
0
 10
121.926342
 20
139.645938
 30
0.0
 10
121.076343
 20
138.173745
 30
0.0
  0
LWPOLYLINE
  5
122
100
AcDbEntity
  8
Capa_1
 62
7
100
AcDbPolyline
 90
2
 70
0
 10
123.626341
 20
139.645938
 30
0.0
 10
121.926342
 20
139.645938
 30
0.0
  0
LWPOLYLINE
  5
123
100
AcDbEntity
  8
Capa_1
 62
7
100
AcDbPolyline
 90
2
 70
0
 10
123.626341
 20
136.701447
 30
0.0
 10
124.476340
 20
138.173745
 30
0.0
  0
LWPOLYLINE
  5
124
100
AcDbEntity
  8
Capa_1
 62
7
100
AcDbPolyline
 90
2
 70
0
 10
121.926342
 20
136.701447
 30
0.0
 10
123.626341
 20
136.701447
 30
0.0
  0
LWPOLYLINE
  5
125
100
AcDbEntity
  8
Capa_1
 62
7
100
AcDbPolyline
 90
2
 70
0
 10
121.076343
 20
138.173745
 30
0.0
 10
121.926342
 20
136.701447
 30
0.0
  0
LWPOLYLINE
  5
126
100
AcDbEntity
  8
Capa_1
 62
7
100
AcDbPolyline
 90
2
 70
0
 10
174.765777
 20
171.859712
 30
0.0
 10
173.915878
 20
173.331905
 30
0.0
  0
LWPOLYLINE
  5
127
100
AcDbEntity
  8
Capa_1
 62
7
100
AcDbPolyline
 90
2
 70
0
 10
172.215879
 20
173.331905
 30
0.0
 10
171.365880
 20
171.859712
 30
0.0
  0
LWPOLYLINE
  5
128
100
AcDbEntity
  8
Capa_1
 62
7
100
AcDbPolyline
 90
2
 70
0
 10
173.915878
 20
173.331905
 30
0.0
 10
172.215879
 20
173.331905
 30
0.0
  0
LWPOLYLINE
  5
129
100
AcDbEntity
  8
Capa_1
 62
7
100
AcDbPolyline
 90
2
 70
0
 10
173.915878
 20
170.387413
 30
0.0
 10
174.765777
 20
171.859712
 30
0.0
  0
LWPOLYLINE
  5
12a
100
AcDbEntity
  8
Capa_1
 62
7
100
AcDbPolyline
 90
2
 70
0
 10
172.215879
 20
170.387413
 30
0.0
 10
173.915878
 20
170.387413
 30
0.0
  0
LWPOLYLINE
  5
12b
100
AcDbEntity
  8
Capa_1
 62
7
100
AcDbPolyline
 90
2
 70
0
 10
171.365880
 20
171.859712
 30
0.0
 10
172.215879
 20
170.387413
 30
0.0
  0
LWPOLYLINE
  5
12c
100
AcDbEntity
  8
Capa_1
 62
7
100
AcDbPolyline
 90
2
 70
0
 10
172.158679
 20
239.100624
 30
0.0
 10
171.308680
 20
240.572922
 30
0.0
  0
LWPOLYLINE
  5
12d
100
AcDbEntity
  8
Capa_1
 62
7
100
AcDbPolyline
 90
2
 70
0
 10
169.608683
 20
240.572922
 30
0.0
 10
168.758684
 20
239.100624
 30
0.0
  0
LWPOLYLINE
  5
12e
100
AcDbEntity
  8
Capa_1
 62
7
100
AcDbPolyline
 90
2
 70
0
 10
171.308680
 20
240.572922
 30
0.0
 10
169.608683
 20
240.572922
 30
0.0
  0
LWPOLYLINE
  5
12f
100
AcDbEntity
  8
Capa_1
 62
7
100
AcDbPolyline
 90
2
 70
0
 10
171.308680
 20
237.628426
 30
0.0
 10
172.158679
 20
239.100624
 30
0.0
  0
LWPOLYLINE
  5
130
100
AcDbEntity
  8
Capa_1
 62
7
100
AcDbPolyline
 90
2
 70
0
 10
169.608683
 20
237.628426
 30
0.0
 10
171.308680
 20
237.628426
 30
0.0
  0
LWPOLYLINE
  5
131
100
AcDbEntity
  8
Capa_1
 62
7
100
AcDbPolyline
 90
2
 70
0
 10
168.758684
 20
239.100624
 30
0.0
 10
169.608683
 20
237.628426
 30
0.0
  0
LWPOLYLINE
  5
132
100
AcDbEntity
  8
Capa_1
 62
7
100
AcDbPolyline
 90
2
 70
0
 10
174.711775
 20
239.100624
 30
0.0
 10
174.290776
 20
240.945921
 30
0.0
  0
LWPOLYLINE
  5
133
100
AcDbEntity
  8
Capa_1
 62
7
100
AcDbPolyline
 90
2
 70
0
 10
174.290776
 20
237.255327
 30
0.0
 10
174.711775
 20
239.100624
 30
0.0
  0
LWPOLYLINE
  5
134
100
AcDbEntity
  8
Capa_1
 62
7
100
AcDbPolyline
 90
6
 70
0
 10
174.290776
 20
240.945921
 30
0.0
 10
173.110379
 20
242.425821
 30
0.0
 10
171.405080
 20
243.247018
 30
0.0
 10
169.685381
 20
243.247018
 30
0.0
 10
168.843983
 20
247.433914
 30
0.0
 10
160.843993
 20
255.433904
 30
0.0
  0
LWPOLYLINE
  5
135
100
AcDbEntity
  8
Capa_1
 62
7
100
AcDbPolyline
 90
2
 70
0
 10
173.110379
 20
235.775527
 30
0.0
 10
174.290776
 20
237.255327
 30
0.0
  0
LWPOLYLINE
  5
136
100
AcDbEntity
  8
Capa_1
 62
7
100
AcDbPolyline
 90
2
 70
0
 10
171.405080
 20
234.954230
 30
0.0
 10
173.110379
 20
235.775527
 30
0.0
  0
LWPOLYLINE
  5
137
100
AcDbEntity
  8
Capa_1
 62
7
100
AcDbPolyline
 90
2
 70
0
 10
171.355781
 20
234.935630
 30
0.0
 10
171.405080
 20
234.954230
 30
0.0
  0
LWPOLYLINE
  5
138
100
AcDbEntity
  8
Capa_1
 62
7
100
AcDbPolyline
 90
2
 70
0
 10
174.594777
 20
188.498278
 30
0.0
 10
174.594777
 20
206.095588
 30
0.0
  0
LWPOLYLINE
  5
139
100
AcDbEntity
  8
Capa_1
 62
7
100
AcDbPolyline
 90
2
 70
0
 10
177.318772
 20
171.859712
 30
0.0
 10
176.897773
 20
173.705020
 30
0.0
  0
LWPOLYLINE
  5
13a
100
AcDbEntity
  8
Capa_1
 62
7
100
AcDbPolyline
 90
2
 70
0
 10
176.897773
 20
170.014404
 30
0.0
 10
177.318772
 20
171.859712
 30
0.0
  0
LWPOLYLINE
  5
13b
100
AcDbEntity
  8
Capa_1
 62
7
100
AcDbPolyline
 90
5
 70
0
 10
176.897773
 20
173.705020
 30
0.0
 10
175.717775
 20
175.184806
 30
0.0
 10
174.011776
 20
176.006098
 30
0.0
 10
173.575177
 20
176.102512
 30
0.0
 10
174.409775
 20
184.675186
 30
0.0
  0
LWPOLYLINE
  5
13c
100
AcDbEntity
  8
Capa_1
 62
7
100
AcDbPolyline
 90
2
 70
0
 10
175.717775
 20
168.534512
 30
0.0
 10
176.897773
 20
170.014404
 30
0.0
  0
LWPOLYLINE
  5
13d
100
AcDbEntity
  8
Capa_1
 62
7
100
AcDbPolyline
 90
2
 70
0
 10
174.011776
 20
167.713326
 30
0.0
 10
175.717775
 20
168.534512
 30
0.0
  0
LWPOLYLINE
  5
13e
100
AcDbEntity
  8
Capa_1
 62
7
100
AcDbPolyline
 90
2
 70
0
 10
172.758777
 20
167.713326
 30
0.0
 10
174.011776
 20
167.713326
 30
0.0
  0
LWPOLYLINE
  5
13f
100
AcDbEntity
  8
Capa_1
 62
7
100
AcDbPolyline
 90
2
 70
0
 10
172.723979
 20
167.355610
 30
0.0
 10
172.758777
 20
167.713326
 30
0.0
  0
LWPOLYLINE
  5
140
100
AcDbEntity
  8
Capa_1
 62
7
100
AcDbPolyline
 90
3
 70
0
 10
172.723979
 20
227.154728
 30
0.0
 10
172.173379
 20
230.867335
 30
0.0
 10
171.355781
 20
234.935630
 30
0.0
  0
LWPOLYLINE
  5
141
100
AcDbEntity
  8
Capa_1
 62
7
100
AcDbPolyline
 90
2
 70
0
 10
170.500082
 20
160.635016
 30
0.0
 10
172.723979
 20
167.355610
 30
0.0
  0
LWPOLYLINE
  5
142
100
AcDbEntity
  8
Capa_1
 62
7
100
AcDbPolyline
 90
2
 70
0
 10
159.225997
 20
260.431998
 30
0.0
 10
145.435812
 20
260.620096
 30
0.0
  0
LWPOLYLINE
  5
143
100
AcDbEntity
  8
Capa_1
 62
7
100
AcDbPolyline
 90
2
 70
0
 10
160.843993
 20
255.433904
 30
0.0
 10
159.225997
 20
260.431998
 30
0.0
  0
LWPOLYLINE
  5
144
100
AcDbEntity
  8
Capa_1
 62
7
100
AcDbPolyline
 90
3
 70
0
 10
145.435812
 20
260.620096
 30
0.0
 10
141.829916
 20
260.664998
 30
0.0
 10
127.227636
 20
260.830497
 30
0.0
  0
LWPOLYLINE
  5
145
100
AcDbEntity
  8
Capa_1
 62
7
100
AcDbPolyline
 90
2
 70
0
 10
136.661925
 20
116.124880
 30
0.0
 10
136.756124
 20
116.295271
 30
0.0
  0
LWPOLYLINE
  5
146
100
AcDbEntity
  8
Capa_1
 62
7
100
AcDbPolyline
 90
2
 70
0
 10
122.062343
 20
122.932759
 30
0.0
 10
136.661925
 20
116.124880
 30
0.0
  0
LWPOLYLINE
  5
147
100
AcDbEntity
  8
Capa_1
 62
7
100
AcDbPolyline
 90
2
 70
0
 10
120.134845
 20
125.172771
 30
0.0
 10
122.062343
 20
122.932759
 30
0.0
  0
LWPOLYLINE
  5
148
100
AcDbEntity
  8
Capa_1
 62
7
100
AcDbPolyline
 90
2
 70
0
 10
37.029950
 20
206.812899
 30
0.0
 10
37.767448
 20
199.248127
 30
0.0
  0
LWPOLYLINE
  5
149
100
AcDbEntity
  8
Capa_1
 62
7
100
AcDbPolyline
 90
3
 70
0
 10
35.519652
 20
214.190558
 30
0.0
 10
34.339453
 20
212.710666
 30
0.0
 10
33.918252
 20
210.865358
 30
0.0
  0
LWPOLYLINE
  5
14a
100
AcDbEntity
  8
Capa_1
 62
7
100
AcDbPolyline
 90
3
 70
0
 10
34.339453
 20
209.020050
 30
0.0
 10
35.519652
 20
207.540238
 30
0.0
 10
37.029950
 20
206.812899
 30
0.0
  0
LWPOLYLINE
  5
14b
100
AcDbEntity
  8
Capa_1
 62
7
100
AcDbPolyline
 90
2
 70
0
 10
33.918252
 20
210.865358
 30
0.0
 10
34.339453
 20
209.020050
 30
0.0
  0
LWPOLYLINE
  5
14c
100
AcDbEntity
  8
Capa_1
 62
7
100
AcDbPolyline
 90
2
 70
0
 10
36.275250
 20
214.554465
 30
0.0
 10
35.519652
 20
214.190558
 30
0.0
  0
LWPOLYLINE
  5
14d
100
AcDbEntity
  8
Capa_1
 62
7
100
AcDbPolyline
 90
2
 70
0
 10
36.011951
 20
217.255143
 30
0.0
 10
36.275250
 20
214.554465
 30
0.0
  0
LWPOLYLINE
  5
14e
100
AcDbEntity
  8
Capa_1
 62
7
100
AcDbPolyline
 90
2
 70
0
 10
35.922850
 20
217.871463
 30
0.0
 10
36.011951
 20
217.255143
 30
0.0
  0
LWPOLYLINE
  5
14f
100
AcDbEntity
  8
Capa_1
 62
7
100
AcDbPolyline
 90
2
 70
0
 10
34.977852
 20
225.994134
 30
0.0
 10
35.811550
 20
217.943350
 30
0.0
  0
LWPOLYLINE
  5
150
100
AcDbEntity
  8
Capa_1
 62
7
100
AcDbPolyline
 90
2
 70
0
 10
35.905951
 20
217.880247
 30
0.0
 10
35.922858
 20
217.871516
 30
0.0
  0
LWPOLYLINE
  5
151
100
AcDbEntity
  8
Capa_1
 62
7
100
AcDbPolyline
 90
2
 70
0
 10
35.811550
 20
217.943350
 30
0.0
 10
35.905951
 20
217.880247
 30
0.0
  0
LWPOLYLINE
  5
152
100
AcDbEntity
  8
Capa_1
 62
7
100
AcDbPolyline
 90
2
 70
0
 10
32.861754
 20
240.469822
 30
0.0
 10
34.977852
 20
225.994134
 30
0.0
  0
LWPOLYLINE
  5
153
100
AcDbEntity
  8
Capa_1
 62
7
100
AcDbPolyline
 90
3
 70
0
 10
96.368875
 20
261.767195
 30
0.0
 10
94.476077
 20
261.767195
 30
0.0
 10
93.146379
 20
261.126897
 30
0.0
  0
LWPOLYLINE
  5
154
100
AcDbEntity
  8
Capa_1
 62
7
100
AcDbPolyline
 90
2
 70
0
 10
168.946284
 20
124.714672
 30
0.0
 10
170.708581
 20
128.758056
 30
0.0
  0
LWPOLYLINE
  5
155
100
AcDbEntity
  8
Capa_1
 62
7
100
AcDbPolyline
 90
2
 70
0
 10
158.125697
 20
111.044780
 30
0.0
 10
168.946284
 20
124.714672
 30
0.0
  0
LWPOLYLINE
  5
156
100
AcDbEntity
  8
Capa_1
 62
7
100
AcDbPolyline
 90
2
 70
0
 10
147.746410
 20
108.599795
 30
0.0
 10
158.125697
 20
111.044780
 30
0.0
  0
LWPOLYLINE
  5
157
100
AcDbEntity
  8
Capa_1
 62
7
100
AcDbPolyline
 90
2
 70
0
 10
136.756124
 20
116.295271
 30
0.0
 10
147.746410
 20
108.599795
 30
0.0
  0
LWPOLYLINE
  5
158
100
AcDbEntity
  8
Capa_1
 62
7
100
AcDbPolyline
 90
2
 70
0
 10
174.409775
 20
184.675186
 30
0.0
 10
174.594777
 20
188.498278
 30
0.0
  0
LWPOLYLINE
  5
159
100
AcDbEntity
  8
Capa_1
 62
7
100
AcDbPolyline
 90
2
 70
0
 10
111.215956
 20
139.246153
 30
0.0
 10
120.134845
 20
125.172771
 30
0.0
  0
LWPOLYLINE
  5
15a
100
AcDbEntity
  8
Capa_1
 62
7
100
AcDbPolyline
 90
2
 70
0
 10
125.326139
 20
265.977891
 30
0.0
 10
109.874557
 20
266.121290
 30
0.0
  0
LWPOLYLINE
  5
15b
100
AcDbEntity
  8
Capa_1
 62
7
100
AcDbPolyline
 90
2
 70
0
 10
127.227636
 20
260.830497
 30
0.0
 10
125.326139
 20
265.977891
 30
0.0
  0
LWPOLYLINE
  5
15c
100
AcDbEntity
  8
Capa_1
 62
7
100
AcDbPolyline
 90
4
 70
0
 10
109.874557
 20
266.121290
 30
0.0
 10
106.749163
 20
263.855893
 30
0.0
 10
103.661866
 20
261.048995
 30
0.0
 10
97.769673
 20
261.092596
 30
0.0
  0
LWPOLYLINE
  5
15d
100
AcDbEntity
  8
Capa_1
 62
7
100
AcDbPolyline
 90
4
 70
0
 10
93.146379
 20
261.126897
 30
0.0
 10
87.748986
 20
261.166796
 30
0.0
 10
85.147789
 20
258.897100
 30
0.0
 10
77.858678
 20
250.799608
 30
0.0
  0
LWPOLYLINE
  5
15e
100
AcDbEntity
  8
Capa_1
 62
7
100
AcDbPolyline
 90
2
 70
0
 10
38.142849
 20
191.845703
 30
0.0
 10
38.178049
 20
174.543113
 30
0.0
  0
LWPOLYLINE
  5
15f
100
AcDbEntity
  8
Capa_1
 62
7
100
AcDbPolyline
 90
2
 70
0
 10
66.388022
 20
139.027343
 30
0.0
 10
81.116474
 20
138.943840
 30
0.0
  0
LWPOLYLINE
  5
160
100
AcDbEntity
  8
Capa_1
 62
7
100
AcDbPolyline
 90
2
 70
0
 10
38.178049
 20
174.543113
 30
0.0
 10
37.839949
 20
167.295417
 30
0.0
  0
LWPOLYLINE
  5
161
100
AcDbEntity
  8
Capa_1
 62
7
100
AcDbPolyline
 90
3
 70
0
 10
77.858678
 20
250.799608
 30
0.0
 10
61.310319
 20
250.893408
 30
0.0
 10
58.078523
 20
250.909098
 30
0.0
  0
LWPOLYLINE
  5
162
100
AcDbEntity
  8
Capa_1
 62
7
100
AcDbPolyline
 90
2
 70
0
 10
64.531995
 20
139.036339
 30
0.0
 10
66.388022
 20
139.027343
 30
0.0
  0
LWPOLYLINE
  5
163
100
AcDbEntity
  8
Capa_1
 62
7
100
AcDbPolyline
 90
2
 70
0
 10
44.918939
 20
139.151459
 30
0.0
 10
61.563619
 20
139.084360
 30
0.0
  0
LWPOLYLINE
  5
164
100
AcDbEntity
  8
Capa_1
 62
7
100
AcDbPolyline
 90
2
 70
0
 10
44.535640
 20
139.241840
 30
0.0
 10
44.918939
 20
139.151459
 30
0.0
  0
LWPOLYLINE
  5
165
100
AcDbEntity
  8
Capa_1
 62
7
100
AcDbPolyline
 90
2
 70
0
 10
37.730348
 20
146.473529
 30
0.0
 10
44.535640
 20
139.241840
 30
0.0
  0
LWPOLYLINE
  5
166
100
AcDbEntity
  8
Capa_1
 62
7
100
AcDbPolyline
 90
2
 70
0
 10
36.156251
 20
149.358939
 30
0.0
 10
36.644651
 20
148.729734
 30
0.0
  0
LWPOLYLINE
  5
167
100
AcDbEntity
  8
Capa_1
 62
7
100
AcDbPolyline
 90
2
 70
0
 10
37.839949
 20
167.295417
 30
0.0
 10
36.156251
 20
149.358939
 30
0.0
  0
LWPOLYLINE
  5
168
100
AcDbEntity
  8
Capa_1
 62
7
100
AcDbPolyline
 90
3
 70
0
 10
36.324651
 20
148.305845
 30
0.0
 10
36.319465
 20
148.208135
 30
0.0
 10
36.644651
 20
148.729734
 30
0.0
  0
LWPOLYLINE
  5
169
100
AcDbEntity
  8
Capa_1
 62
7
100
AcDbPolyline
 90
2
 70
0
 10
64.531995
 20
139.036339
 30
0.0
 10
61.563619
 20
139.084360
 30
0.0
  0
LWPOLYLINE
  5
16a
100
AcDbEntity
  8
Capa_1
 62
7
100
AcDbPolyline
 90
2
 70
0
 10
35.811550
 20
217.943350
 30
0.0
 10
35.922850
 20
217.871463
 30
0.0
  0
ENDSEC
  0
SECTION
  2
OBJECTS
  0
DICTIONARY
  5
C
330
0
100
AcDbDictionary
  3
ACAD_GROUP
350
D
  3
ACAD_MLINESTYLE
350
17
  0
DICTIONARY
  5
D
330
C
100
AcDbDictionary
  0
DICTIONARY
  5
1A
330
C
100
AcDbDictionary
  0
DICTIONARY
  5
17
330
C
100
AcDbDictionary
  3
STANDARD
350
18
  0
DICTIONARY
  5
19
330
C
100
AcDbDictionary
  0
ENDSEC
  0
EOF
